<?xml version="1.0" encoding="utf-8"?>
<!-- Generator: Adobe Illustrator 26.1.0, SVG Export Plug-In . SVG Version: 6.00 Build 0)  -->
<svg version="1.1" id="a" xmlns="http://www.w3.org/2000/svg" xmlns:xlink="http://www.w3.org/1999/xlink" x="0px" y="0px"
	 viewBox="0 0 414.4 163.9" style="enable-background:new 0 0 414.4 163.9;" xml:space="preserve">
<style type="text/css">
	.st0{fill-rule:evenodd;clip-rule:evenodd;fill:#FFFFFF;}
	.st1{fill-rule:evenodd;clip-rule:evenodd;fill:#D1312C;}
	.st2{fill:#FFFFFF;}
</style>
<path class="st0" d="M53.4,21.3c25.4,0,46,20.6,46,46s-20.6,46-46,46s-46-20.6-46-46S27.9,21.3,53.4,21.3"/>
<path class="st1" d="M148.4,89.6c-6.9,1.7-8.8,2.7-16.1,3.5c-9,0.9-16.7,0.3-25.2-1.6c-20.9-4.7-25.9-14.9-31.4-11.2
	c-5.5,3.7-2.7,8.1,1.1,12.9c5.6,7,12.2,11.7,21.7,14.4c-16.8,15.5-35.5,20-55.8,14.7C19.3,116.2,9.2,98.8,4.7,89
	c-1-2.2-2.5-1.6-3.4-1.3c-1.6,0.5-1.8,4.6,0,13.7C18.9,192.1,145.1,180.6,148.4,89.6"/>
<path class="st2" d="M400.7,0v23.4H413v17.1h-12.3v21.8c0,2.6,0.2,4.4,0.7,5.2c0.7,1.3,2,2,3.9,2c1.7,0,4-0.5,6.9-1.5l1.6,16.2
	c-5.5,1.3-10.7,1.9-15.5,1.9c-5.6,0-9.7-0.8-12.3-2.2c-2.6-1.5-4.6-3.8-5.9-6.8c-1.3-3.1-1.9-8-1.9-14.9V40.5H370V23.4h8.3V12.1
	L400.7,0 M360.1,84.7h-20.9v-9.9c-3.1,4.1-6.3,7-9.4,8.7c-3.2,1.7-7.1,2.6-11.7,2.6c-6.2,0-11-1.9-14.5-5.8s-5.2-9.8-5.2-17.9v-39
	h22.5v33.7c0,3.8,0.7,6.6,2,8.2c1.4,1.6,3.3,2.4,5.7,2.4c2.7,0,4.9-1.1,6.6-3.2c1.7-2.2,2.6-6,2.6-11.6V23.3h22.4L360.1,84.7
	L360.1,84.7z M185.8,23.3h20.9v9c3-3.8,6-6.4,9.1-8s6.8-2.4,11.1-2.4c4.7,0,8.3,0.9,11,2.6s4.9,4.3,6.7,7.8c3.5-4,6.7-6.7,9.6-8.2
	c2.9-1.4,6.5-2.2,10.7-2.2c6.3,0,11.2,2,14.7,5.9s5.3,10,5.3,18.3v38.5h-22.5V49.8c0-2.8-0.5-4.9-1.5-6.2c-1.5-2.1-3.4-3.2-5.6-3.2
	c-2.6,0-4.8,1-6.4,3c-1.6,2-2.4,5.2-2.4,9.7v31.6H224V50.9c0-2.7-0.1-4.5-0.4-5.5c-0.5-1.5-1.3-2.8-2.5-3.7c-1.2-1-2.6-1.4-4.1-1.4
	c-2.6,0-4.7,1-6.3,3.1c-1.6,2-2.5,5.4-2.5,10.1v31.3h-22.5L185.8,23.3L185.8,23.3z M150.3,55.6c-3.1,1.2-6.3,2.2-9.6,3.1
	c-4.6,1.3-7.4,2.5-8.6,3.8c-1.3,1.3-1.9,2.7-1.9,4.3c0,1.9,0.6,3.4,1.8,4.5c1.2,1.2,3,1.8,5.4,1.8s4.8-0.6,7-1.9
	c2.1-1.3,3.7-2.8,4.6-4.6c0.9-1.8,1.3-4.2,1.3-7.1V55.6L150.3,55.6z M130.9,43.2l-21.4-2.4c0.8-3.9,2-7,3.5-9.3
	c1.5-2.2,3.7-4.2,6.6-5.9c2.1-1.2,4.9-2.1,8.5-2.8c3.6-0.6,7.5-1,11.7-1c6.7,0,12.1,0.4,16.2,1.2c4.1,0.8,7.5,2.4,10.2,5
	c1.9,1.7,3.4,4.2,4.5,7.4s1.6,6.2,1.6,9.1v27.1c0,2.9,0.2,5.1,0.5,6.8c0.4,1.6,1.1,3.7,2.3,6.3h-21c-0.9-1.6-1.4-2.8-1.7-3.6
	c-0.3-0.8-0.5-2.1-0.8-3.9c-2.9,3-5.9,5.1-8.8,6.4c-4,1.7-8.6,2.5-13.8,2.5c-7,0-12.3-1.7-15.9-5.1s-5.4-7.5-5.4-12.5
	c0-4.7,1.3-8.5,3.9-11.5s7.4-5.2,14.4-6.7c8.4-1.8,13.9-3,16.4-3.7s5.1-1.7,7.9-2.8c0-2.9-0.6-4.9-1.7-6.1c-1.1-1.1-3.1-1.7-6-1.7
	c-3.7,0-6.4,0.6-8.2,1.9C132.9,38.7,131.7,40.5,130.9,43.2"/>
<path class="st2" d="M152.4,117.3l7.1-18.5h2.6l7.6,18.5H167l-2.2-5.6h-7.7l-2,5.6H152.4L152.4,117.3z M157.8,109.7h6.3l-1.9-5.1
	c-0.6-1.6-1-2.8-1.3-3.8c-0.2,1.2-0.6,2.4-1,3.5L157.8,109.7L157.8,109.7z"/>
<path class="st2" d="M170.8,113.3l2.2-0.4c0.1,0.9,0.5,1.6,1,2.1c0.6,0.5,1.4,0.7,2.4,0.7s1.8-0.2,2.3-0.6s0.8-0.9,0.8-1.5
	c0-0.5-0.2-0.9-0.7-1.2c-0.3-0.2-1.1-0.5-2.3-0.8c-1.7-0.4-2.8-0.8-3.5-1.1c-0.6-0.3-1.1-0.7-1.5-1.3c-0.3-0.5-0.5-1.1-0.5-1.8
	c0-0.6,0.1-1.1,0.4-1.7s0.6-0.9,1.1-1.3c0.4-0.3,0.8-0.5,1.4-0.7c0.6-0.2,1.3-0.3,2-0.3c1,0,2,0.1,2.8,0.5c0.8,0.3,1.4,0.7,1.8,1.2
	c0.4,0.5,0.6,1.2,0.8,2.1l-2.2,0.3c-0.1-0.7-0.4-1.2-0.9-1.6s-1.2-0.6-2-0.6c-1,0-1.8,0.2-2.2,0.5c-0.5,0.4-0.7,0.8-0.7,1.2
	c0,0.3,0.1,0.6,0.3,0.8c0.2,0.2,0.5,0.5,0.9,0.6c0.2,0.1,0.9,0.3,2,0.6c1.6,0.4,2.7,0.8,3.4,1c0.6,0.3,1.1,0.7,1.5,1.2
	s0.5,1.2,0.5,1.9s-0.2,1.5-0.7,2.1s-1.1,1.2-1.9,1.5c-0.8,0.4-1.8,0.5-2.8,0.5c-1.7,0-3.1-0.4-4-1.1
	C171.7,115.8,171.1,114.7,170.8,113.3"/>
<path class="st2" d="M184,113.3l2.2-0.4c0.1,0.9,0.5,1.6,1,2.1c0.6,0.5,1.4,0.7,2.4,0.7s1.8-0.2,2.3-0.6s0.8-0.9,0.8-1.5
	c0-0.5-0.2-0.9-0.7-1.2c-0.3-0.2-1.1-0.5-2.3-0.8c-1.7-0.4-2.8-0.8-3.5-1.1c-0.6-0.3-1.1-0.7-1.5-1.3c-0.3-0.5-0.5-1.1-0.5-1.8
	c0-0.6,0.1-1.1,0.4-1.7s0.6-0.9,1.1-1.3c0.4-0.3,0.8-0.5,1.4-0.7c0.6-0.2,1.3-0.3,2-0.3c1,0,2,0.1,2.8,0.5c0.8,0.3,1.4,0.7,1.8,1.2
	c0.4,0.5,0.6,1.2,0.8,2.1l-2.2,0.3c-0.1-0.7-0.4-1.2-0.9-1.6s-1.2-0.6-2-0.6c-1,0-1.8,0.2-2.2,0.5c-0.5,0.4-0.7,0.8-0.7,1.2
	c0,0.3,0.1,0.6,0.3,0.8c0.2,0.2,0.5,0.5,0.9,0.6c0.2,0.1,0.9,0.3,2,0.6c1.6,0.4,2.7,0.8,3.4,1c0.6,0.3,1.1,0.7,1.5,1.2
	s0.5,1.2,0.5,1.9s-0.2,1.5-0.7,2.1s-1.1,1.2-1.9,1.5c-0.8,0.4-1.8,0.5-2.8,0.5c-1.7,0-3.1-0.4-4-1.1
	C184.9,115.8,184.3,114.7,184,113.3"/>
<path class="st2" d="M197.3,110.6c0-2.5,0.7-4.3,2.1-5.5c1.1-1,2.6-1.5,4.2-1.5c1.8,0,3.4,0.6,4.5,1.8s1.8,2.9,1.8,5
	c0,1.7-0.3,3.1-0.8,4.1s-1.3,1.8-2.3,2.3s-2.1,0.8-3.2,0.8c-1.9,0-3.4-0.6-4.5-1.8C197.9,114.6,197.3,112.9,197.3,110.6
	 M199.6,110.6c0,1.7,0.4,3,1.1,3.9c0.8,0.9,1.7,1.3,2.8,1.3s2.1-0.4,2.8-1.3c0.8-0.9,1.1-2.2,1.1-3.9c0-1.7-0.4-2.9-1.1-3.8
	c-0.8-0.9-1.7-1.3-2.8-1.3s-2.1,0.4-2.8,1.3S199.6,108.9,199.6,110.6"/>
<path class="st2" d="M221.6,112.4l2.2,0.3c-0.2,1.5-0.9,2.8-1.9,3.6s-2.2,1.3-3.7,1.3c-1.8,0-3.3-0.6-4.4-1.8
	c-1.1-1.2-1.7-2.9-1.7-5.2c0-1.5,0.2-2.7,0.7-3.8s1.2-1.9,2.2-2.4s2-0.8,3.2-0.8c1.5,0,2.6,0.4,3.6,1.1c0.9,0.7,1.5,1.8,1.8,3.1
	l-2.2,0.3c-0.2-0.9-0.6-1.6-1.1-2c-0.5-0.5-1.2-0.7-1.9-0.7c-1.1,0-2.1,0.4-2.8,1.2c-0.7,0.8-1.1,2.1-1.1,3.9s0.4,3.1,1,3.9
	s1.6,1.2,2.7,1.2c0.9,0,1.6-0.3,2.2-0.8C221,114.4,221.4,113.6,221.6,112.4"/>
<path class="st2" d="M226,98.8h2.3v2.6H226V98.8z M226,103.9h2.3v13.4H226V103.9z"/>
<path class="st2" d="M240.8,115.7c-0.8,0.7-1.6,1.2-2.4,1.5c-0.8,0.3-1.6,0.4-2.5,0.4c-1.5,0-2.6-0.4-3.4-1.1s-1.2-1.6-1.2-2.8
	c0-0.7,0.1-1.3,0.5-1.8c0.3-0.5,0.7-1,1.2-1.3s1-0.6,1.6-0.7c0.5-0.1,1.1-0.2,2-0.3c1.8-0.2,3.2-0.5,4-0.8c0-0.3,0-0.5,0-0.6
	c0-0.9-0.2-1.6-0.6-2c-0.6-0.5-1.4-0.8-2.6-0.8c-1.1,0-1.9,0.2-2.4,0.6s-0.9,1-1.1,2l-2.2-0.3c0.2-1,0.5-1.7,1-2.3
	c0.5-0.6,1.1-1,2-1.4s1.9-0.5,3-0.5s2.1,0.1,2.8,0.4s1.2,0.6,1.6,1s0.6,0.9,0.7,1.5c0.1,0.4,0.1,1.1,0.1,2.1v3c0,2.1,0,3.5,0.1,4
	c0.1,0.6,0.3,1.1,0.6,1.6h-2.4C241,116.9,240.9,116.3,240.8,115.7 M240.6,110.6c-0.8,0.3-2.1,0.6-3.7,0.9c-0.9,0.1-1.6,0.3-2,0.5
	s-0.7,0.4-0.9,0.7c-0.2,0.3-0.3,0.7-0.3,1.1c0,0.6,0.2,1.1,0.7,1.5s1.1,0.6,2,0.6s1.7-0.2,2.3-0.6s1.2-0.9,1.5-1.6
	c0.2-0.5,0.4-1.3,0.4-2.3V110.6L240.6,110.6z"/>
<path class="st2" d="M255.5,112.4l2.2,0.3c-0.2,1.5-0.9,2.8-1.9,3.6c-1,0.9-2.2,1.3-3.7,1.3c-1.8,0-3.3-0.6-4.4-1.8
	c-1.1-1.2-1.7-2.9-1.7-5.2c0-1.5,0.2-2.7,0.7-3.8c0.5-1.1,1.2-1.9,2.2-2.4s2-0.8,3.2-0.8c1.5,0,2.6,0.4,3.6,1.1
	c0.9,0.7,1.5,1.8,1.8,3.1l-2.2,0.3c-0.2-0.9-0.6-1.6-1.1-2c-0.5-0.5-1.2-0.7-1.9-0.7c-1.1,0-2.1,0.4-2.8,1.2
	c-0.7,0.8-1.1,2.1-1.1,3.9s0.3,3.1,1,3.9s1.6,1.2,2.7,1.2c0.9,0,1.6-0.3,2.2-0.8S255.3,113.6,255.5,112.4 M250.2,119l0.7-2.2h1.7
	l-0.4,1.4c0.7,0.1,1.2,0.3,1.6,0.7c0.4,0.4,0.5,0.8,0.5,1.2c0,0.6-0.3,1.2-0.9,1.7c-0.6,0.5-1.5,0.7-2.7,0.7c-0.7,0-1.3,0-1.8-0.1
	l0.1-1.5c0.5,0,0.9,0,1.2,0c0.8,0,1.4-0.1,1.7-0.3c0.2-0.2,0.4-0.4,0.4-0.6c0-0.1,0-0.3-0.1-0.4s-0.3-0.2-0.5-0.3
	S250.8,119,250.2,119"/>
<path class="st2" d="M268.7,115.7c-0.8,0.7-1.6,1.2-2.4,1.5s-1.6,0.4-2.5,0.4c-1.5,0-2.6-0.4-3.4-1.1s-1.2-1.6-1.2-2.8
	c0-0.7,0.1-1.3,0.5-1.8c0.3-0.5,0.7-1,1.2-1.3s1-0.6,1.6-0.7c0.5-0.1,1.1-0.2,2-0.3c1.8-0.2,3.2-0.5,4-0.8c0-0.3,0-0.5,0-0.6
	c0-0.9-0.2-1.6-0.6-2c-0.6-0.5-1.4-0.8-2.6-0.8c-1.1,0-1.9,0.2-2.4,0.6s-0.9,1-1.1,2l-2.2-0.3c0.2-1,0.5-1.7,1-2.3
	c0.5-0.6,1.1-1,2-1.4s1.9-0.5,3-0.5s2.1,0.1,2.8,0.4c0.7,0.3,1.2,0.6,1.6,1s0.6,0.9,0.7,1.5c0.1,0.4,0.1,1.1,0.1,2.1v3
	c0,2.1,0,3.5,0.1,4c0.1,0.6,0.3,1.1,0.6,1.6h-2.4C268.9,116.9,268.8,116.3,268.7,115.7 M261.1,101.9c0-0.9,0.2-1.6,0.7-2.1
	s1.1-0.8,1.8-0.8c0.5,0,1.2,0.2,2.1,0.7c0.5,0.2,0.9,0.4,1.2,0.4c0.3,0,0.5-0.1,0.6-0.2s0.2-0.4,0.3-0.9h1.6c0,1-0.3,1.7-0.7,2.2
	c-0.5,0.5-1,0.7-1.8,0.7c-0.5,0-1.2-0.2-2.1-0.7c-0.6-0.3-1-0.5-1.2-0.5c-0.3,0-0.5,0.1-0.7,0.3c-0.2,0.2-0.3,0.5-0.3,0.9H261.1
	L261.1,101.9z M268.5,110.6c-0.8,0.3-2.1,0.6-3.7,0.9c-0.9,0.1-1.6,0.3-2,0.5s-0.7,0.4-0.9,0.7c-0.2,0.3-0.3,0.7-0.3,1.1
	c0,0.6,0.2,1.1,0.7,1.5s1.1,0.6,2,0.6s1.7-0.2,2.3-0.6s1.2-0.9,1.5-1.6c0.2-0.5,0.4-1.3,0.4-2.3V110.6L268.5,110.6z"/>
<path class="st2" d="M273.8,110.6c0-2.5,0.7-4.3,2.1-5.5c1.1-1,2.6-1.5,4.2-1.5c1.8,0,3.4,0.6,4.5,1.8c1.2,1.2,1.8,2.9,1.8,5
	c0,1.7-0.3,3.1-0.8,4.1s-1.3,1.8-2.3,2.3s-2.1,0.8-3.2,0.8c-1.9,0-3.4-0.6-4.5-1.8C274.3,114.6,273.8,112.9,273.8,110.6
	 M276.1,110.6c0,1.7,0.4,3,1.1,3.9c0.8,0.9,1.7,1.3,2.8,1.3s2.1-0.4,2.8-1.3c0.8-0.9,1.1-2.2,1.1-3.9c0-1.7-0.4-2.9-1.1-3.8
	c-0.8-0.9-1.7-1.3-2.8-1.3s-2.1,0.4-2.8,1.3S276.1,108.9,276.1,110.6"/>
<path class="st2" d="M297,117.3V98.8h3.7l4.4,13.1c0.4,1.2,0.7,2.1,0.9,2.7c0.2-0.7,0.5-1.7,1-3l4.4-12.9h3.3v18.5h-2.4v-15.5
	l-5.4,15.5h-2.2l-5.4-15.8v15.8L297,117.3L297,117.3z"/>
<path class="st2" d="M327.4,117.3v-2c-1,1.5-2.5,2.3-4.2,2.3c-0.8,0-1.5-0.1-2.2-0.5c-0.7-0.3-1.2-0.7-1.5-1.1
	c-0.3-0.5-0.6-1-0.7-1.7c-0.1-0.5-0.1-1.1-0.1-2.1v-8.3h2.3v7.4c0,1.2,0,2,0.1,2.4c0.1,0.6,0.5,1.1,0.9,1.4s1,0.5,1.7,0.5
	s1.3-0.2,1.9-0.5c0.6-0.4,1-0.8,1.3-1.4c0.2-0.6,0.4-1.5,0.4-2.6v-7.2h2.3v13.4L327.4,117.3L327.4,117.3z"/>
<path class="st2" d="M338.2,115.3l0.3,2c-0.6,0.1-1.2,0.2-1.7,0.2c-0.8,0-1.5-0.1-1.9-0.4c-0.5-0.3-0.8-0.6-1-1s-0.3-1.3-0.3-2.7
	v-7.7H332v-1.8h1.7v-3.3l2.3-1.4v4.7h2.3v1.8H336v7.8c0,0.6,0,1.1,0.1,1.2c0.1,0.2,0.2,0.3,0.4,0.4c0.2,0.1,0.4,0.2,0.8,0.2
	C337.5,115.4,337.8,115.3,338.2,115.3"/>
<path class="st2" d="M349.5,117.3v-2c-1,1.5-2.5,2.3-4.2,2.3c-0.8,0-1.5-0.1-2.2-0.5c-0.7-0.3-1.2-0.7-1.5-1.1
	c-0.3-0.5-0.6-1-0.7-1.7c-0.1-0.5-0.1-1.1-0.1-2.1v-8.3h2.3v7.4c0,1.2,0,2,0.1,2.4c0.1,0.6,0.5,1.1,0.9,1.4s1,0.5,1.7,0.5
	s1.3-0.2,1.9-0.5c0.6-0.4,1-0.8,1.3-1.4c0.2-0.6,0.4-1.5,0.4-2.6v-7.2h2.3v13.4L349.5,117.3L349.5,117.3z"/>
<path class="st2" d="M364.1,115.7c-0.8,0.7-1.6,1.2-2.4,1.5s-1.6,0.4-2.5,0.4c-1.5,0-2.6-0.4-3.4-1.1s-1.2-1.6-1.2-2.8
	c0-0.7,0.1-1.3,0.5-1.8c0.3-0.5,0.7-1,1.2-1.3s1-0.6,1.6-0.7c0.5-0.1,1.1-0.2,2-0.3c1.8-0.2,3.2-0.5,4-0.8c0-0.3,0-0.5,0-0.6
	c0-0.9-0.2-1.6-0.6-2c-0.6-0.5-1.4-0.8-2.6-0.8c-1.1,0-1.9,0.2-2.4,0.6s-0.9,1-1.1,2l-2.2-0.3c0.2-1,0.5-1.7,1-2.3
	c0.5-0.6,1.1-1,2-1.4s1.9-0.5,3-0.5s2.1,0.1,2.8,0.4c0.7,0.3,1.2,0.6,1.6,1s0.6,0.9,0.7,1.5c0.1,0.4,0.1,1.1,0.1,2.1v3
	c0,2.1,0,3.5,0.1,4c0.1,0.6,0.3,1.1,0.6,1.6h-2.4C364.3,116.9,364.2,116.3,364.1,115.7 M363.9,110.6c-0.8,0.3-2.1,0.6-3.7,0.9
	c-0.9,0.1-1.6,0.3-2,0.5s-0.7,0.4-0.9,0.7c-0.2,0.3-0.3,0.7-0.3,1.1c0,0.6,0.2,1.1,0.7,1.5s1.1,0.6,2,0.6s1.7-0.2,2.3-0.6
	s1.2-0.9,1.5-1.6c0.2-0.5,0.4-1.3,0.4-2.3V110.6L363.9,110.6z"/>
<rect x="370" y="98.8" class="st2" width="2.3" height="18.5"/>
<path class="st2" d="M376.1,98.8h2.3v2.6h-2.3V98.8z M376.1,103.9h2.3v13.4h-2.3V103.9z"/>
<path class="st2" d="M381.2,113.3l2.2-0.4c0.1,0.9,0.5,1.6,1,2.1c0.6,0.5,1.4,0.7,2.4,0.7s1.8-0.2,2.3-0.6s0.8-0.9,0.8-1.5
	c0-0.5-0.2-0.9-0.7-1.2c-0.3-0.2-1.1-0.5-2.3-0.8c-1.7-0.4-2.8-0.8-3.5-1.1c-0.6-0.3-1.1-0.7-1.5-1.3c-0.3-0.5-0.5-1.1-0.5-1.8
	c0-0.6,0.1-1.1,0.4-1.7s0.6-0.9,1.1-1.3c0.4-0.3,0.8-0.5,1.4-0.7s1.3-0.3,2-0.3c1,0,2,0.1,2.8,0.5c0.8,0.3,1.4,0.7,1.8,1.2
	s0.6,1.2,0.8,2.1l-2.2,0.3c-0.1-0.7-0.4-1.2-0.9-1.6s-1.2-0.6-2-0.6c-1,0-1.8,0.2-2.2,0.5c-0.5,0.4-0.7,0.8-0.7,1.2
	c0,0.3,0.1,0.6,0.3,0.8c0.2,0.2,0.5,0.5,0.9,0.6c0.2,0.1,0.9,0.3,2,0.6c1.6,0.4,2.7,0.8,3.4,1c0.6,0.3,1.1,0.7,1.5,1.2
	s0.5,1.2,0.5,1.9s-0.2,1.5-0.7,2.1s-1.1,1.2-1.9,1.5c-0.8,0.4-1.8,0.5-2.8,0.5c-1.7,0-3.1-0.4-4-1.1
	C382.1,115.8,381.5,114.7,381.2,113.3"/>
<path class="st2" d="M400.3,115.3l0.3,2c-0.6,0.1-1.2,0.2-1.7,0.2c-0.8,0-1.5-0.1-1.9-0.4c-0.5-0.3-0.8-0.6-1-1s-0.3-1.3-0.3-2.7
	v-7.7H394v-1.8h1.7v-3.3l2.3-1.4v4.7h2.3v1.8H398v7.8c0,0.6,0,1.1,0.1,1.2c0.1,0.2,0.2,0.3,0.4,0.4c0.2,0.1,0.4,0.2,0.8,0.2
	C399.6,115.4,399.9,115.3,400.3,115.3"/>
<path class="st2" d="M411.6,115.7c-0.8,0.7-1.6,1.2-2.4,1.5s-1.6,0.4-2.5,0.4c-1.5,0-2.6-0.4-3.4-1.1s-1.2-1.6-1.2-2.8
	c0-0.7,0.1-1.3,0.5-1.8c0.3-0.5,0.7-1,1.2-1.3s1-0.6,1.6-0.7c0.5-0.1,1.1-0.2,2-0.3c1.8-0.2,3.2-0.5,4-0.8c0-0.3,0-0.5,0-0.6
	c0-0.9-0.2-1.6-0.6-2c-0.6-0.5-1.4-0.8-2.6-0.8c-1.1,0-1.9,0.2-2.4,0.6s-0.9,1-1.1,2l-2.2-0.3c0.2-1,0.5-1.7,1-2.3
	c0.5-0.6,1.1-1,2-1.4s1.9-0.5,3-0.5s2.1,0.1,2.8,0.4c0.7,0.3,1.2,0.6,1.6,1s0.6,0.9,0.7,1.5c0.1,0.4,0.1,1.1,0.1,2.1v3
	c0,2.1,0,3.5,0.1,4c0.1,0.6,0.3,1.1,0.6,1.6H412C411.8,116.9,411.6,116.3,411.6,115.7 M411.3,110.6c-0.8,0.3-2.1,0.6-3.7,0.9
	c-0.9,0.1-1.6,0.3-2,0.5s-0.7,0.4-0.9,0.7s-0.3,0.7-0.3,1.1c0,0.6,0.2,1.1,0.7,1.5s1.1,0.6,2,0.6s1.7-0.2,2.3-0.6s1.2-0.9,1.5-1.6
	c0.2-0.5,0.4-1.3,0.4-2.3V110.6L411.3,110.6z"/>
<path class="st2" d="M162.9,145.8v-1.7c-0.9,1.3-2.1,2-3.8,2c-1.1,0-2.1-0.3-2.9-0.9c-0.9-0.6-1.6-1.4-2.1-2.5s-0.7-2.3-0.7-3.6
	s0.2-2.5,0.7-3.6c0.4-1.1,1.1-1.9,2-2.5s1.9-0.9,3-0.9c0.8,0,1.5,0.2,2.2,0.5s1.1,0.8,1.5,1.3v-6.6h2.3v18.5L162.9,145.8
	L162.9,145.8z M155.7,139.1c0,1.7,0.4,3,1.1,3.9c0.7,0.9,1.6,1.3,2.6,1.3s1.8-0.4,2.5-1.2s1-2,1-3.7c0-1.8-0.4-3.2-1.1-4
	c-0.7-0.9-1.6-1.3-2.6-1.3s-1.9,0.4-2.5,1.2C156,136,155.7,137.3,155.7,139.1"/>
<path class="st2" d="M178,141.4l2.4,0.3c-0.4,1.4-1.1,2.4-2.1,3.2s-2.3,1.1-3.8,1.1c-2,0-3.5-0.6-4.7-1.8c-1.1-1.2-1.7-2.9-1.7-5.1
	s0.6-4,1.7-5.2s2.7-1.9,4.5-1.9s3.3,0.6,4.4,1.8c1.1,1.2,1.7,2.9,1.7,5.1c0,0.1,0,0.3,0,0.6h-10c0.1,1.5,0.5,2.6,1.2,3.4
	s1.7,1.2,2.8,1.2c0.8,0,1.5-0.2,2.1-0.7S177.7,142.4,178,141.4 M170.6,137.8h7.5c-0.1-1.1-0.4-2-0.9-2.5c-0.7-0.9-1.7-1.3-2.8-1.3
	c-1,0-1.9,0.4-2.6,1C171,135.7,170.7,136.6,170.6,137.8"/>
<path class="st2" d="M199.9,138.5v-2.2h7.8v6.9c-1.2,1-2.4,1.7-3.7,2.2s-2.6,0.7-3.9,0.7c-1.8,0-3.5-0.4-5-1.2s-2.6-1.9-3.4-3.4
	c-0.8-1.5-1.1-3.1-1.1-4.9s0.4-3.5,1.1-5s1.8-2.7,3.2-3.5s3-1.1,4.9-1.1c1.3,0,2.5,0.2,3.6,0.6c1.1,0.4,1.9,1,2.5,1.8s1.1,1.8,1.4,3
	l-2.2,0.6c-0.3-0.9-0.6-1.7-1-2.2s-1-1-1.8-1.3s-1.6-0.5-2.5-0.5c-1.1,0-2.1,0.2-2.9,0.5c-0.8,0.3-1.5,0.8-2,1.3
	c-0.5,0.6-0.9,1.2-1.2,1.8c-0.5,1.1-0.7,2.4-0.7,3.7c0,1.6,0.3,3,0.9,4.1c0.6,1.1,1.4,1.9,2.5,2.5s2.2,0.8,3.5,0.8
	c1.1,0,2.1-0.2,3.1-0.6c1-0.4,1.8-0.8,2.3-1.3v-3.5L199.9,138.5L199.9,138.5z"/>
<path class="st2" d="M210.5,139c0-2.5,0.7-4.3,2.1-5.5c1.1-1,2.6-1.5,4.2-1.5c1.8,0,3.4,0.6,4.5,1.8c1.2,1.2,1.8,2.9,1.8,5
	c0,1.7-0.3,3.1-0.8,4.1s-1.3,1.8-2.3,2.3s-2.1,0.8-3.2,0.8c-1.9,0-3.4-0.6-4.5-1.8C211.1,143,210.5,141.3,210.5,139 M212.9,139
	c0,1.7,0.4,3,1.1,3.9c0.8,0.9,1.7,1.3,2.8,1.3s2.1-0.4,2.8-1.3c0.8-0.9,1.1-2.2,1.1-3.9s-0.4-2.9-1.1-3.8c-0.8-0.9-1.7-1.3-2.8-1.3
	s-2.1,0.4-2.8,1.3S212.9,137.3,212.9,139"/>
<path class="st2" d="M226.1,145.8v-13.4h2v1.9c1-1.5,2.4-2.2,4.3-2.2c0.8,0,1.5,0.1,2.2,0.4c0.7,0.3,1.2,0.7,1.5,1.1
	c0.3,0.5,0.6,1,0.7,1.7c0.1,0.4,0.1,1.2,0.1,2.2v8.2h-2.3v-8.2c0-0.9-0.1-1.6-0.3-2.1s-0.5-0.8-0.9-1.1c-0.5-0.3-1-0.4-1.6-0.4
	c-1,0-1.8,0.3-2.5,0.9c-0.7,0.6-1.1,1.8-1.1,3.5v7.3L226.1,145.8L226.1,145.8z"/>
<path class="st2" d="M249.4,145.8v-1.7c-0.9,1.3-2.1,2-3.8,2c-1.1,0-2-0.3-3-0.9c-0.9-0.6-1.6-1.4-2.1-2.5s-0.7-2.3-0.7-3.6
	s0.2-2.5,0.7-3.6s1.1-1.9,2-2.5s1.9-0.9,3-0.9c0.8,0,1.5,0.2,2.2,0.5s1.1,0.8,1.5,1.3v-6.6h2.3v18.5L249.4,145.8L249.4,145.8z
	 M242.2,139.1c0,1.7,0.4,3,1.1,3.9c0.7,0.9,1.6,1.3,2.6,1.3s1.8-0.4,2.5-1.2s1-2,1-3.7c0-1.8-0.4-3.2-1.1-4
	c-0.7-0.9-1.6-1.3-2.6-1.3s-1.9,0.4-2.5,1.2C242.6,136,242.2,137.3,242.2,139.1"/>
<path class="st2" d="M254.5,139c0-2.5,0.7-4.3,2.1-5.5c1.1-1,2.6-1.5,4.2-1.5c1.8,0,3.4,0.6,4.5,1.8c1.2,1.2,1.8,2.9,1.8,5
	c0,1.7-0.3,3.1-0.8,4.1s-1.3,1.8-2.3,2.3s-2.1,0.8-3.2,0.8c-1.9,0-3.4-0.6-4.5-1.8C255.1,143,254.5,141.3,254.5,139 M256.9,139
	c0,1.7,0.4,3,1.1,3.9c0.8,0.9,1.7,1.3,2.8,1.3s2.1-0.4,2.8-1.3c0.8-0.9,1.1-2.2,1.1-3.9s-0.4-2.9-1.1-3.8c-0.8-0.9-1.7-1.3-2.8-1.3
	s-2.1,0.4-2.8,1.3S256.9,137.3,256.9,139"/>
<path class="st2" d="M270.1,145.8v-13.4h2v1.9c0.4-0.7,1-1.2,1.7-1.6c0.7-0.4,1.5-0.6,2.4-0.6c1,0,1.8,0.2,2.4,0.6
	c0.6,0.4,1.1,1,1.4,1.7c1.1-1.6,2.4-2.4,4.1-2.4c1.3,0,2.4,0.4,3.1,1.1s1.1,1.9,1.1,3.4v9.2H286v-8.5c0-0.9-0.1-1.6-0.2-2
	s-0.4-0.7-0.8-1s-0.8-0.4-1.4-0.4c-0.9,0-1.7,0.3-2.4,0.9s-0.9,1.6-0.9,3v7.8H278v-8.7c0-1-0.2-1.8-0.6-2.3s-1-0.8-1.8-0.8
	c-0.6,0-1.2,0.2-1.8,0.5c-0.5,0.3-0.9,0.8-1.2,1.5c-0.2,0.6-0.4,1.6-0.4,2.8v7L270.1,145.8L270.1,145.8z"/>
<path class="st2" d="M300.6,144.1c-0.8,0.7-1.6,1.2-2.4,1.5s-1.6,0.4-2.5,0.4c-1.5,0-2.6-0.4-3.4-1.1s-1.2-1.6-1.2-2.8
	c0-0.7,0.1-1.3,0.5-1.8c0.3-0.5,0.7-1,1.2-1.3s1-0.6,1.6-0.7c0.5-0.1,1.1-0.2,2-0.3c1.8-0.2,3.2-0.5,4-0.8c0-0.3,0-0.5,0-0.6
	c0-0.9-0.2-1.6-0.6-2c-0.6-0.5-1.4-0.8-2.6-0.8c-1.1,0-1.9,0.2-2.4,0.6c-0.5,0.4-0.9,1-1.1,2l-2.2-0.3c0.2-1,0.5-1.7,1-2.3
	s1.1-1,2-1.4s1.9-0.5,3-0.5s2.1,0.1,2.8,0.4c0.7,0.3,1.2,0.6,1.6,1s0.6,0.9,0.7,1.5c0.1,0.4,0.1,1.1,0.1,2.1v3c0,2.1,0,3.5,0.1,4
	c0.1,0.6,0.3,1.1,0.6,1.6H301C300.8,145.3,300.7,144.8,300.6,144.1 M300.4,139c-0.8,0.3-2.1,0.6-3.7,0.9c-0.9,0.1-1.6,0.3-2,0.5
	s-0.7,0.4-0.9,0.7c-0.2,0.3-0.3,0.7-0.3,1.1c0,0.6,0.2,1.1,0.7,1.5s1.1,0.6,2,0.6s1.7-0.2,2.3-0.6s1.2-0.9,1.5-1.6
	c0.2-0.5,0.4-1.3,0.4-2.3V139L300.4,139z"/>
<path class="st2" d="M306.5,145.8v-13.4h2v2c0.5-1,1-1.6,1.5-1.9c0.4-0.3,0.9-0.5,1.5-0.5c0.8,0,1.5,0.2,2.3,0.7l-0.8,2.1
	c-0.6-0.3-1.1-0.5-1.7-0.5c-0.5,0-0.9,0.1-1.3,0.5c-0.4,0.3-0.7,0.7-0.9,1.2c-0.2,0.8-0.4,1.7-0.4,2.6v7L306.5,145.8L306.5,145.8z"
	/>
</svg>
