<?xml version="1.0" encoding="UTF-8"?><svg id="a" xmlns="http://www.w3.org/2000/svg" xmlns:xlink="http://www.w3.org/1999/xlink" viewBox="0 0 1137.12 824.59"><defs><style>.f{font-size:54.16px;}.f,.g,.h,.i,.j{fill:#fff;}.k{fill:#f0c792;}.l{fill:#cfac7e;}.m,.n,.o{fill:#d1302c;}.p{fill:#ad8f69;}.q,.r{fill:#d8d8d6;}.s{fill:#bf9d72;}.t{fill:#e1ba86;}.u{fill:#2d69b0;}.v,.n,.h{font-family:BebasNeueBold, Bebas Neue;}.w{filter:url(#d);}.x{font-family:Satisfy-Regular, Satisfy;}.n{font-size:71.61px;}.y{letter-spacing:0em;}.a`{letter-spacing:0em;}.aa{letter-spacing:0em;}.h{font-size:60.45px;}.i{filter:url(#b);stroke:#fff;stroke-miterlimit:10;stroke-width:4px;}.o,.r{fill-rule:evenodd;}.ab{letter-spacing:-.04em;}.j{font-family:BebasNeue-Regular, Bebas Neue;font-size:34.1px;}</style><filter id="b" filterUnits="userSpaceOnUse"><feOffset dx="-2" dy="3"/><feGaussianBlur result="c" stdDeviation="3"/><feFlood flood-color="#000" flood-opacity=".66"/><feComposite in2="c" operator="in"/><feComposite in="SourceGraphic"/></filter><filter id="d" filterUnits="userSpaceOnUse"><feOffset dx="-2" dy="3"/><feGaussianBlur result="e" stdDeviation="3"/><feFlood flood-color="#000" flood-opacity=".66"/><feComposite in2="e" operator="in"/><feComposite in="SourceGraphic"/></filter></defs><rect class="u" x=".6" width="1135.93" height="824.59"/><g><g><rect class="i" x="568.56" y="412.09" width="444.51" height="81.45" rx="10.23" ry="10.23"/><text class="n" transform="translate(605.5 476.85)"><tspan x="0" y="0">nif: 501 634 851</tspan></text><text class="j" transform="translate(646.86 541.2)"><tspan x="0" y="0">irs | mode</tspan><tspan class="y" x="119.14" y="0">l</tspan><tspan x="130.73" y="0">o 3 | q</tspan><tspan class="a`" x="205.06" y="0">u</tspan><tspan x="218.7" y="0">adro 11</tspan></text><text class="h" transform="translate(470.41 387.07)"><tspan x="0" y="0">Bas</tspan><tspan class="ab" x="71.75" y="0">t</tspan><tspan class="aa" x="90.97" y="0">a consignar 0,5% do seu irs</tspan></text></g><text class="f" transform="translate(677.99 176.91)"><tspan class="v"><tspan x="0" y="0" xml:space="preserve">ajude-nos a  </tspan></tspan><tspan class="x"><tspan x="-227.55" y="54.16">Nutrir a Saúde e a Felicidade do </tspan></tspan><tspan class="x"><tspan x="-185.13" y="108.33">Ser Humano, Solidariamente!</tspan></tspan></text><g><path class="r" d="M706.11,595.95c13.85,0,25.09,11.24,25.09,25.09s-11.24,25.09-25.09,25.09-25.09-11.23-25.09-25.09,11.24-25.09,25.09-25.09"/><path class="o" d="M757.91,633.2c-3.74,.92-4.81,1.48-8.76,1.88-4.89,.49-9.1,.18-13.76-.87-11.42-2.58-14.13-8.1-17.15-6.08-3.02,2.02-1.49,4.4,.61,7.03,3.03,3.81,6.65,6.39,11.82,7.87-9.14,8.45-19.35,10.93-30.44,8.01-12.66-3.33-18.19-12.85-20.66-18.2-.56-1.22-1.35-.86-1.85-.7-.87,.27-.98,2.5-.01,7.46,9.61,49.49,78.46,43.23,80.21-6.4"/><path class="g" d="M895.5,584.35v12.73h6.72v9.35h-6.72v11.87c0,1.43,.13,2.38,.39,2.84,.4,.71,1.1,1.08,2.1,1.08,.9,0,2.16-.28,3.78-.83l.9,8.86c-3.02,.69-5.84,1.03-8.47,1.03-3.04,0-5.29-.41-6.72-1.23-1.45-.82-2.51-2.06-3.2-3.73-.7-1.67-1.04-4.38-1.04-8.12v-11.77h-4.51v-9.35h4.51v-6.15l12.25-6.58m-22.16,46.18h-11.42v-5.42c-1.7,2.22-3.41,3.82-5.14,4.75-1.73,.95-3.86,1.42-6.39,1.42-3.36,0-6-1.05-7.91-3.16-1.91-2.11-2.86-5.36-2.86-9.75v-21.29h12.28v18.4c0,2.1,.37,3.59,1.11,4.47,.75,.88,1.78,1.32,3.13,1.32,1.47,0,2.65-.59,3.59-1.76,.93-1.18,1.39-3.29,1.39-6.33v-16.09h12.23v33.45Zm-95-33.45h11.41v4.88c1.65-2.04,3.3-3.48,4.97-4.35,1.67-.86,3.69-1.29,6.06-1.29,2.54,0,4.55,.47,6.03,1.42,1.49,.95,2.7,2.35,3.64,4.22,1.92-2.18,3.67-3.68,5.26-4.46,1.58-.78,3.53-1.18,5.85-1.18,3.42,0,6.1,1.06,8.01,3.2,1.93,2.13,2.88,5.46,2.88,10v21.01h-12.25v-19.05c0-1.52-.28-2.64-.84-3.38-.82-1.15-1.85-1.73-3.06-1.73-1.44,0-2.6,.55-3.48,1.63-.88,1.1-1.31,2.85-1.31,5.27v17.26h-12.26v-18.43c0-1.47-.08-2.46-.24-2.99-.27-.84-.72-1.52-1.35-2.03-.65-.52-1.39-.77-2.25-.77-1.4,0-2.55,.56-3.45,1.67-.9,1.12-1.35,2.95-1.35,5.48v17.07h-12.25v-33.45Zm-19.37,17.57c-1.68,.63-3.43,1.19-5.25,1.68-2.48,.69-4.06,1.38-4.71,2.04-.69,.7-1.03,1.48-1.03,2.37,0,1.01,.34,1.83,1,2.47,.68,.64,1.66,.96,2.96,.96s2.62-.34,3.8-1.03c1.17-.7,2-1.55,2.49-2.54,.49-1,.73-2.3,.73-3.89v-2.05Zm-10.6-6.74l-11.67-1.29c.44-2.14,1.08-3.83,1.91-5.05,.83-1.23,2.02-2.29,3.59-3.19,1.12-.66,2.66-1.16,4.62-1.52,1.96-.35,4.08-.54,6.37-.54,3.66,0,6.61,.22,8.82,.65,2.22,.43,4.08,1.33,5.56,2.7,1.05,.95,1.87,2.28,2.47,4.01,.59,1.74,.89,3.39,.89,4.97v14.77c0,1.57,.1,2.81,.29,3.7,.19,.89,.61,2.03,1.25,3.42h-11.47c-.46-.86-.76-1.52-.9-1.97-.14-.45-.28-1.16-.42-2.13-1.6,1.62-3.2,2.77-4.78,3.46-2.16,.92-4.67,1.39-7.53,1.39-3.8,0-6.69-.92-8.67-2.77-1.97-1.84-2.95-4.12-2.95-6.83,0-2.55,.71-4.63,2.13-6.27,1.43-1.65,4.04-2.86,7.86-3.66,4.59-.97,7.56-1.65,8.93-2.03,1.35-.39,2.8-.9,4.32-1.53,0-1.58-.31-2.68-.92-3.31-.63-.62-1.71-.95-3.28-.95-2,0-3.49,.34-4.5,1.01-.78,.53-1.42,1.52-1.9,2.96"/><path class="q" d="M760.13,648.3l3.88-10.09h1.44l4.13,10.09h-1.52l-1.18-3.06h-4.22l-1.11,3.06h-1.42Zm2.91-4.14h3.42l-1.05-2.8c-.32-.85-.56-1.55-.72-2.09-.13,.65-.31,1.29-.54,1.93l-1.11,2.96Z"/><path class="q" d="M770.15,646.12l1.23-.19c.07,.49,.26,.87,.57,1.13,.32,.26,.75,.39,1.32,.39s.99-.12,1.27-.35c.28-.23,.41-.5,.41-.82,0-.28-.12-.5-.37-.66-.17-.11-.59-.25-1.27-.42-.91-.23-1.54-.43-1.89-.6-.35-.17-.62-.4-.8-.7-.18-.3-.27-.62-.27-.98,0-.33,.07-.63,.22-.91,.15-.28,.35-.51,.61-.69,.19-.14,.45-.26,.79-.36,.33-.1,.69-.15,1.07-.15,.57,0,1.08,.08,1.51,.25,.43,.17,.75,.39,.96,.67,.21,.28,.35,.66,.43,1.13l-1.21,.16c-.06-.38-.22-.67-.48-.88-.26-.21-.64-.32-1.12-.32-.57,0-.97,.09-1.22,.28-.24,.19-.37,.41-.37,.66,0,.16,.05,.3,.15,.43,.1,.13,.26,.24,.48,.33,.12,.05,.49,.15,1.1,.32,.88,.23,1.49,.43,1.83,.57,.35,.15,.62,.37,.82,.65,.2,.28,.3,.64,.3,1.06s-.12,.8-.36,1.17c-.24,.37-.59,.65-1.04,.85-.45,.2-.97,.3-1.54,.3-.95,0-1.67-.2-2.17-.59-.5-.39-.82-.98-.95-1.76"/><path class="q" d="M777.35,646.12l1.23-.19c.07,.49,.26,.87,.57,1.13,.32,.26,.75,.39,1.32,.39s.99-.12,1.27-.35c.28-.23,.41-.5,.41-.82,0-.28-.12-.5-.37-.66-.17-.11-.59-.25-1.27-.42-.91-.23-1.54-.43-1.89-.6-.35-.17-.62-.4-.8-.7-.18-.3-.27-.62-.27-.98,0-.33,.07-.63,.22-.91,.15-.28,.35-.51,.61-.69,.19-.14,.45-.26,.79-.36,.33-.1,.69-.15,1.07-.15,.57,0,1.08,.08,1.51,.25,.43,.17,.75,.39,.96,.67,.21,.28,.35,.66,.43,1.13l-1.21,.16c-.06-.38-.22-.67-.48-.88s-.64-.32-1.12-.32c-.57,0-.97,.09-1.22,.28-.24,.19-.37,.41-.37,.66,0,.16,.05,.3,.15,.43,.1,.13,.26,.24,.48,.33,.12,.05,.49,.15,1.1,.32,.88,.23,1.49,.43,1.83,.57,.35,.15,.62,.37,.82,.65,.2,.28,.3,.64,.3,1.06s-.12,.8-.36,1.17c-.24,.37-.59,.65-1.04,.85-.45,.2-.97,.3-1.54,.3-.95,0-1.67-.2-2.17-.59-.5-.39-.82-.98-.95-1.76"/><path class="q" d="M784.59,644.64c0-1.35,.38-2.36,1.13-3.01,.63-.54,1.4-.81,2.3-.81,1.01,0,1.83,.33,2.47,.99s.96,1.57,.96,2.73c0,.94-.14,1.68-.42,2.22s-.69,.96-1.23,1.26c-.54,.3-1.13,.45-1.77,.45-1.02,0-1.85-.33-2.48-.98-.63-.66-.95-1.6-.95-2.84m1.27,0c0,.94,.2,1.64,.61,2.1,.41,.47,.92,.7,1.54,.7s1.13-.23,1.54-.7c.41-.47,.61-1.18,.61-2.14,0-.9-.21-1.59-.62-2.06-.41-.47-.92-.7-1.53-.7s-1.13,.23-1.54,.7c-.41,.46-.61,1.16-.61,2.1"/><path class="q" d="M797.82,645.62l1.22,.16c-.13,.84-.47,1.5-1.02,1.97-.55,.48-1.22,.71-2.02,.71-1,0-1.81-.33-2.41-.98-.61-.65-.91-1.59-.91-2.81,0-.79,.13-1.48,.39-2.07,.26-.59,.66-1.04,1.19-1.33,.53-.3,1.12-.44,1.75-.44,.79,0,1.44,.2,1.95,.6,.51,.4,.83,.97,.97,1.71l-1.21,.19c-.12-.49-.32-.86-.61-1.11-.29-.25-.64-.37-1.06-.37-.62,0-1.13,.22-1.52,.67-.39,.45-.58,1.16-.58,2.12s.19,1.7,.56,2.14c.38,.45,.87,.67,1.47,.67,.49,0,.89-.15,1.22-.45,.33-.3,.53-.76,.62-1.38"/><path class="q" d="M800.26,638.21h1.24v1.42h-1.24v-1.42Zm0,2.78h1.24v7.31h-1.24v-7.31Z"/><path class="q" d="M808.31,647.4c-.46,.39-.9,.67-1.33,.83-.42,.16-.88,.24-1.37,.24-.8,0-1.42-.2-1.85-.59-.43-.39-.65-.89-.65-1.5,0-.36,.08-.69,.24-.98,.16-.3,.38-.53,.64-.71s.56-.31,.89-.41c.24-.06,.61-.13,1.1-.19,1-.12,1.74-.26,2.21-.43,0-.17,0-.28,0-.32,0-.5-.12-.86-.35-1.07-.32-.28-.79-.42-1.41-.42-.58,0-1.01,.1-1.29,.31-.28,.2-.48,.57-.62,1.08l-1.21-.17c.11-.52,.29-.94,.54-1.26,.25-.32,.62-.56,1.09-.74s1.03-.26,1.66-.26,1.13,.07,1.52,.22c.39,.15,.68,.33,.86,.56s.31,.5,.39,.84c.04,.21,.06,.59,.06,1.14v1.65c0,1.15,.03,1.88,.08,2.19,.05,.3,.16,.6,.31,.88h-1.29c-.13-.26-.21-.56-.25-.9m-.1-2.77c-.45,.18-1.12,.34-2.02,.47-.51,.07-.87,.16-1.08,.25-.21,.09-.37,.23-.49,.4-.12,.18-.17,.37-.17,.59,0,.33,.13,.61,.38,.83,.25,.22,.62,.33,1.1,.33s.9-.1,1.27-.31c.37-.21,.64-.49,.82-.86,.13-.28,.2-.69,.2-1.24v-.45Z"/><path class="q" d="M816.31,645.62l1.22,.16c-.13,.84-.47,1.5-1.02,1.97-.55,.47-1.22,.71-2.02,.71-1,0-1.8-.33-2.41-.98-.61-.65-.91-1.59-.91-2.81,0-.79,.13-1.48,.39-2.07,.26-.59,.66-1.04,1.2-1.33,.53-.3,1.12-.44,1.75-.44,.79,0,1.44,.2,1.95,.6,.51,.4,.83,.97,.97,1.71l-1.21,.19c-.12-.49-.32-.86-.61-1.11-.29-.25-.64-.37-1.06-.37-.62,0-1.13,.22-1.52,.67-.39,.45-.58,1.16-.58,2.12s.19,1.7,.56,2.14c.38,.45,.87,.67,1.47,.67,.49,0,.89-.15,1.22-.45s.53-.76,.62-1.38m-2.87,3.6l.36-1.22h.92l-.23,.74c.39,.05,.68,.17,.88,.36,.2,.19,.3,.41,.3,.65,0,.34-.17,.65-.5,.91-.33,.26-.83,.4-1.49,.4-.38,0-.71-.03-.99-.08l.08-.81c.29,.02,.51,.03,.65,.03,.43,0,.74-.06,.91-.18,.13-.09,.2-.2,.2-.34,0-.08-.03-.16-.08-.22-.05-.07-.15-.12-.29-.17-.14-.05-.38-.07-.71-.08"/><path class="q" d="M823.52,647.4c-.46,.39-.9,.67-1.33,.83-.42,.16-.88,.24-1.37,.24-.8,0-1.42-.2-1.85-.59-.43-.39-.65-.89-.65-1.5,0-.36,.08-.69,.24-.98,.16-.3,.38-.53,.64-.71s.56-.31,.89-.41c.24-.06,.61-.13,1.1-.19,1-.12,1.74-.26,2.21-.43,0-.17,0-.28,0-.32,0-.5-.12-.86-.35-1.07-.32-.28-.79-.42-1.41-.42-.58,0-1.01,.1-1.29,.31-.28,.2-.48,.57-.62,1.08l-1.21-.17c.11-.52,.29-.94,.54-1.26,.25-.32,.62-.56,1.09-.74s1.03-.26,1.66-.26,1.13,.07,1.52,.22c.39,.15,.68,.33,.86,.56,.18,.22,.31,.5,.39,.84,.04,.21,.06,.59,.06,1.14v1.65c0,1.15,.03,1.88,.08,2.19,.05,.3,.16,.6,.31,.88h-1.29c-.13-.26-.21-.56-.25-.9m-4.12-7.49c0-.48,.13-.86,.39-1.14,.26-.28,.6-.43,1-.43,.28,0,.67,.12,1.16,.37,.27,.14,.49,.21,.65,.21,.15,0,.26-.04,.34-.12,.08-.08,.13-.24,.17-.48h.9c-.01,.52-.14,.92-.4,1.18-.25,.26-.57,.39-.95,.39-.29,0-.67-.13-1.14-.39-.31-.17-.53-.25-.67-.25-.16,0-.28,.05-.38,.16-.1,.11-.15,.27-.14,.49h-.92Zm4.02,4.72c-.45,.18-1.12,.34-2.02,.47-.51,.07-.87,.16-1.08,.25-.21,.09-.37,.23-.49,.4-.12,.18-.17,.37-.17,.59,0,.33,.13,.61,.38,.83,.25,.22,.62,.33,1.1,.33s.9-.1,1.27-.31c.37-.21,.64-.49,.82-.86,.13-.28,.2-.69,.2-1.24v-.45Z"/><path class="q" d="M826.28,644.64c0-1.35,.38-2.36,1.13-3.01,.63-.54,1.4-.81,2.3-.81,1.01,0,1.83,.33,2.47,.99,.64,.66,.96,1.57,.96,2.73,0,.94-.14,1.68-.42,2.22-.28,.54-.69,.96-1.23,1.26-.54,.3-1.13,.45-1.77,.45-1.02,0-1.85-.33-2.48-.98-.63-.66-.95-1.6-.95-2.84m1.27,0c0,.94,.2,1.64,.61,2.1,.41,.47,.92,.7,1.54,.7s1.13-.23,1.54-.7c.41-.47,.61-1.18,.61-2.14,0-.9-.21-1.59-.62-2.06-.41-.47-.92-.7-1.53-.7s-1.13,.23-1.54,.7c-.41,.46-.61,1.16-.61,2.1"/><path class="q" d="M838.93,648.3v-10.09h2.01l2.39,7.15c.22,.67,.38,1.16,.48,1.49,.12-.37,.29-.91,.54-1.62l2.42-7.02h1.8v10.09h-1.29v-8.45l-2.93,8.45h-1.21l-2.92-8.59v8.59h-1.29Z"/><path class="q" d="M855.51,648.3v-1.07c-.57,.83-1.34,1.24-2.32,1.24-.43,0-.83-.08-1.21-.25-.37-.16-.65-.37-.83-.62-.18-.25-.31-.56-.38-.92-.05-.24-.08-.63-.08-1.16v-4.53h1.24v4.05c0,.65,.03,1.08,.08,1.31,.08,.33,.24,.58,.5,.77,.25,.19,.56,.28,.94,.28s.72-.09,1.05-.29c.32-.19,.56-.45,.69-.78,.14-.33,.2-.8,.2-1.43v-3.92h1.24v7.31h-1.11Z"/><path class="q" d="M861.42,647.19l.18,1.1c-.35,.07-.66,.11-.94,.11-.45,0-.8-.07-1.05-.21-.25-.14-.42-.33-.52-.56-.1-.23-.15-.72-.15-1.46v-4.21h-.91v-.96h.91v-1.81l1.23-.74v2.55h1.25v.96h-1.25v4.28c0,.35,.02,.58,.07,.68,.04,.1,.11,.18,.21,.24,.1,.06,.24,.09,.42,.09,.14,0,.32-.02,.54-.05"/><path class="q" d="M867.58,648.3v-1.07c-.57,.83-1.34,1.24-2.32,1.24-.43,0-.83-.08-1.21-.25-.37-.16-.65-.37-.83-.62-.18-.25-.31-.56-.38-.92-.05-.24-.08-.63-.08-1.16v-4.53h1.24v4.05c0,.65,.03,1.08,.08,1.31,.08,.33,.24,.58,.5,.77,.25,.19,.56,.28,.94,.28s.72-.09,1.05-.29c.32-.19,.56-.45,.69-.78,.14-.33,.2-.8,.2-1.43v-3.92h1.24v7.31h-1.11Z"/><path class="q" d="M875.55,647.4c-.46,.39-.9,.67-1.33,.83-.42,.16-.88,.24-1.37,.24-.8,0-1.42-.2-1.85-.59-.43-.39-.65-.89-.65-1.5,0-.36,.08-.69,.24-.98,.16-.3,.38-.53,.64-.71,.26-.18,.56-.31,.89-.41,.24-.06,.61-.13,1.1-.19,1-.12,1.74-.26,2.21-.43,0-.17,0-.28,0-.32,0-.5-.12-.86-.35-1.07-.32-.28-.79-.42-1.41-.42-.58,0-1.01,.1-1.29,.31-.28,.2-.48,.57-.62,1.08l-1.21-.17c.11-.52,.29-.94,.54-1.26,.25-.32,.62-.56,1.09-.74s1.03-.26,1.66-.26,1.13,.07,1.52,.22c.39,.15,.68,.33,.86,.56s.31,.5,.39,.84c.04,.21,.06,.59,.06,1.14v1.65c0,1.15,.03,1.88,.08,2.19,.05,.3,.16,.6,.31,.88h-1.29c-.13-.26-.21-.56-.25-.9m-.1-2.77c-.45,.18-1.12,.34-2.02,.47-.51,.07-.87,.16-1.08,.25-.21,.09-.37,.23-.49,.4s-.17,.37-.17,.59c0,.33,.13,.61,.38,.83,.25,.22,.62,.33,1.1,.33s.9-.1,1.27-.31c.37-.21,.64-.49,.82-.86,.13-.28,.2-.69,.2-1.24v-.45Z"/><rect class="q" x="878.75" y="638.21" width="1.24" height="10.09"/><path class="q" d="M882.08,638.21h1.24v1.42h-1.24v-1.42Zm0,2.78h1.24v7.31h-1.24v-7.31Z"/><path class="q" d="M884.86,646.12l1.23-.19c.07,.49,.26,.87,.57,1.13,.32,.26,.75,.39,1.32,.39s.99-.12,1.27-.35c.28-.23,.41-.5,.41-.82,0-.28-.12-.5-.37-.66-.17-.11-.59-.25-1.27-.42-.91-.23-1.54-.43-1.89-.6-.35-.17-.62-.4-.8-.7-.18-.3-.27-.62-.27-.98,0-.33,.07-.63,.22-.91,.15-.28,.35-.51,.61-.69,.19-.14,.45-.26,.79-.36,.33-.1,.69-.15,1.07-.15,.57,0,1.08,.08,1.51,.25,.43,.17,.75,.39,.96,.67,.21,.28,.35,.66,.43,1.13l-1.21,.16c-.06-.38-.22-.67-.48-.88-.26-.21-.64-.32-1.12-.32-.57,0-.97,.09-1.22,.28-.24,.19-.37,.41-.37,.66,0,.16,.05,.3,.15,.43,.1,.13,.26,.24,.48,.33,.12,.05,.49,.15,1.1,.32,.88,.23,1.49,.43,1.83,.57,.35,.15,.62,.37,.82,.65,.2,.28,.3,.64,.3,1.06s-.12,.8-.36,1.17c-.24,.37-.59,.65-1.04,.85-.45,.2-.97,.3-1.54,.3-.95,0-1.67-.2-2.17-.59-.5-.39-.82-.98-.95-1.76"/><path class="q" d="M895.27,647.19l.18,1.1c-.35,.07-.66,.11-.94,.11-.45,0-.8-.07-1.05-.21-.25-.14-.42-.33-.52-.56-.1-.23-.15-.72-.15-1.46v-4.21h-.91v-.96h.91v-1.81l1.23-.74v2.55h1.25v.96h-1.25v4.28c0,.35,.02,.58,.07,.68,.04,.1,.11,.18,.21,.24,.1,.06,.24,.09,.42,.09,.14,0,.32-.02,.54-.05"/><path class="q" d="M901.41,647.4c-.46,.39-.9,.67-1.33,.83-.42,.16-.88,.24-1.37,.24-.8,0-1.42-.2-1.85-.59-.43-.39-.65-.89-.65-1.5,0-.36,.08-.69,.24-.98,.16-.3,.38-.53,.64-.71,.26-.18,.56-.31,.89-.41,.24-.06,.61-.13,1.1-.19,1-.12,1.74-.26,2.21-.43,0-.17,0-.28,0-.32,0-.5-.12-.86-.35-1.07-.32-.28-.79-.42-1.41-.42-.58,0-1.01,.1-1.29,.31-.28,.2-.48,.57-.62,1.08l-1.21-.17c.11-.52,.29-.94,.54-1.26,.25-.32,.62-.56,1.09-.74s1.03-.26,1.66-.26,1.13,.07,1.52,.22c.39,.15,.68,.33,.86,.56s.31,.5,.39,.84c.04,.21,.06,.59,.06,1.14v1.65c0,1.15,.03,1.88,.08,2.19,.05,.3,.16,.6,.31,.88h-1.29c-.13-.26-.21-.56-.25-.9m-.1-2.77c-.45,.18-1.12,.34-2.02,.47-.51,.07-.87,.16-1.08,.25-.21,.09-.37,.23-.49,.4s-.17,.37-.17,.59c0,.33,.13,.61,.38,.83,.25,.22,.62,.33,1.1,.33s.9-.1,1.27-.31c.37-.21,.64-.49,.82-.86,.13-.28,.2-.69,.2-1.24v-.45Z"/><path class="q" d="M765.82,663.81v-.92c-.46,.73-1.15,1.09-2.05,1.09-.58,0-1.12-.16-1.61-.48-.49-.32-.87-.77-1.14-1.35-.27-.58-.4-1.24-.4-1.99s.12-1.39,.37-1.99c.24-.59,.61-1.05,1.09-1.37,.49-.32,1.03-.48,1.63-.48,.44,0,.83,.09,1.18,.28s.62,.43,.84,.73v-3.62h1.23v10.09h-1.15Zm-3.92-3.65c0,.94,.2,1.64,.59,2.1,.39,.46,.86,.7,1.4,.7s1-.22,1.38-.66c.38-.44,.57-1.12,.57-2.03,0-1-.19-1.73-.58-2.2-.38-.47-.86-.7-1.43-.7s-1.01,.22-1.38,.67c-.37,.45-.55,1.16-.55,2.13"/><path class="q" d="M774.08,661.46l1.28,.16c-.2,.75-.58,1.33-1.12,1.74-.55,.41-1.24,.62-2.09,.62-1.07,0-1.92-.33-2.54-.99-.63-.66-.94-1.58-.94-2.77s.32-2.18,.95-2.86c.63-.68,1.46-1.02,2.47-1.02s1.78,.33,2.4,1c.62,.66,.93,1.6,.93,2.81,0,.07,0,.18,0,.33h-5.45c.05,.8,.27,1.42,.68,1.84,.41,.43,.92,.64,1.53,.64,.45,0,.84-.12,1.16-.36,.32-.24,.58-.62,.76-1.14m-4.07-2h4.08c-.06-.61-.21-1.08-.47-1.38-.4-.48-.91-.72-1.54-.72-.57,0-1.05,.19-1.44,.57-.39,.38-.6,.89-.64,1.53"/><path class="q" d="M786.03,659.85v-1.18h4.28v3.74c-.66,.52-1.33,.92-2.03,1.18-.7,.26-1.41,.4-2.15,.4-.99,0-1.89-.21-2.7-.64-.81-.43-1.42-1.04-1.83-1.84-.41-.8-.62-1.7-.62-2.69s.2-1.9,.62-2.75c.41-.85,1-1.48,1.77-1.9,.77-.41,1.66-.62,2.66-.62,.73,0,1.39,.12,1.98,.35,.59,.24,1.05,.57,1.39,.99,.33,.42,.59,.97,.76,1.65l-1.21,.33c-.15-.51-.34-.92-.56-1.21s-.55-.53-.96-.71c-.42-.18-.88-.26-1.39-.26-.61,0-1.14,.09-1.58,.28-.45,.19-.8,.43-1.08,.73-.27,.3-.49,.64-.64,1-.26,.62-.39,1.3-.39,2.03,0,.9,.15,1.65,.46,2.26,.31,.61,.76,1.06,1.35,1.35s1.22,.44,1.89,.44c.58,0,1.14-.11,1.69-.33,.55-.22,.97-.46,1.25-.71v-1.88h-2.97Z"/><path class="q" d="M791.81,660.15c0-1.35,.38-2.36,1.13-3.01,.63-.54,1.4-.81,2.3-.81,1.01,0,1.83,.33,2.47,.99,.64,.66,.96,1.57,.96,2.73,0,.94-.14,1.68-.42,2.22s-.69,.96-1.23,1.26c-.54,.3-1.13,.45-1.77,.45-1.02,0-1.85-.33-2.48-.98-.63-.66-.95-1.6-.95-2.84m1.27,0c0,.94,.2,1.64,.61,2.1,.41,.47,.92,.7,1.54,.7s1.13-.23,1.54-.7c.41-.47,.61-1.18,.61-2.14,0-.9-.21-1.59-.62-2.06-.41-.47-.92-.7-1.53-.7s-1.13,.23-1.54,.7c-.41,.46-.61,1.16-.61,2.1"/><path class="q" d="M800.27,663.81v-7.31h1.11v1.04c.54-.8,1.31-1.21,2.33-1.21,.44,0,.84,.08,1.21,.24,.37,.16,.65,.37,.83,.62s.31,.56,.39,.92c.05,.23,.07,.63,.07,1.21v4.5h-1.24v-4.45c0-.51-.05-.88-.14-1.13-.1-.25-.27-.45-.51-.6-.25-.15-.53-.22-.86-.22-.53,0-.98,.17-1.37,.5-.38,.34-.58,.97-.58,1.91v3.99h-1.24Z"/><path class="q" d="M813.01,663.81v-.92c-.46,.73-1.15,1.09-2.05,1.09-.58,0-1.12-.16-1.61-.48-.49-.32-.87-.77-1.14-1.35-.27-.58-.4-1.24-.4-1.99s.12-1.39,.37-1.99c.24-.59,.61-1.05,1.09-1.37,.49-.32,1.03-.48,1.63-.48,.44,0,.83,.09,1.18,.28,.34,.19,.62,.43,.84,.73v-3.62h1.23v10.09h-1.15Zm-3.92-3.65c0,.94,.2,1.64,.59,2.1,.39,.46,.86,.7,1.4,.7s1-.22,1.38-.66c.38-.44,.57-1.12,.57-2.03,0-1-.19-1.73-.58-2.2-.38-.47-.86-.7-1.43-.7s-1.01,.22-1.38,.67c-.37,.45-.55,1.16-.55,2.13"/><path class="q" d="M815.8,660.15c0-1.35,.38-2.36,1.13-3.01,.63-.54,1.4-.81,2.3-.81,1.01,0,1.83,.33,2.47,.99,.64,.66,.96,1.57,.96,2.73,0,.94-.14,1.68-.42,2.22s-.69,.96-1.23,1.26c-.54,.3-1.13,.45-1.77,.45-1.02,0-1.85-.33-2.48-.98-.63-.66-.95-1.6-.95-2.84m1.27,0c0,.94,.2,1.64,.61,2.1,.41,.47,.92,.7,1.54,.7s1.13-.23,1.54-.7c.41-.47,.61-1.18,.61-2.14,0-.9-.21-1.59-.62-2.06-.41-.47-.92-.7-1.53-.7s-1.13,.23-1.54,.7c-.41,.46-.61,1.16-.61,2.1"/><path class="q" d="M824.26,663.81v-7.31h1.11v1.03c.23-.36,.53-.65,.92-.86,.38-.22,.82-.33,1.3-.33,.54,0,.99,.11,1.33,.34,.35,.22,.59,.54,.73,.94,.58-.85,1.33-1.28,2.26-1.28,.72,0,1.28,.2,1.67,.6,.39,.4,.58,1.02,.58,1.86v5.02h-1.23v-4.61c0-.5-.04-.85-.12-1.07-.08-.22-.23-.39-.44-.53s-.46-.2-.74-.2c-.51,0-.94,.17-1.28,.51-.34,.34-.51,.89-.51,1.64v4.25h-1.24v-4.75c0-.55-.1-.96-.3-1.24-.2-.27-.53-.41-.99-.41-.35,0-.67,.09-.97,.28-.3,.18-.51,.45-.64,.81-.13,.35-.2,.86-.2,1.53v3.79h-1.24Z"/><path class="q" d="M840.93,662.91c-.46,.39-.9,.67-1.33,.83-.42,.16-.88,.24-1.37,.24-.8,0-1.42-.2-1.85-.59-.43-.39-.65-.89-.65-1.5,0-.36,.08-.69,.24-.98,.16-.3,.38-.53,.64-.71s.56-.31,.89-.41c.24-.06,.61-.13,1.1-.19,1-.12,1.74-.26,2.21-.43,0-.17,0-.28,0-.32,0-.5-.12-.86-.35-1.07-.32-.28-.79-.42-1.41-.42-.58,0-1.01,.1-1.29,.31-.28,.2-.48,.57-.62,1.08l-1.21-.17c.11-.52,.29-.94,.54-1.26,.25-.32,.62-.56,1.09-.74s1.03-.26,1.66-.26,1.13,.07,1.52,.22c.39,.15,.68,.33,.86,.56,.18,.22,.31,.5,.39,.84,.04,.21,.06,.59,.06,1.14v1.65c0,1.15,.03,1.88,.08,2.19,.05,.3,.16,.6,.31,.88h-1.29c-.13-.26-.21-.56-.25-.9m-.1-2.77c-.45,.18-1.12,.34-2.02,.47-.51,.07-.87,.16-1.08,.25-.21,.09-.37,.23-.49,.4-.12,.18-.17,.37-.17,.59,0,.33,.13,.61,.38,.83,.25,.22,.62,.33,1.1,.33s.9-.1,1.27-.31c.37-.21,.64-.49,.82-.86,.13-.28,.2-.69,.2-1.24v-.45Z"/><path class="q" d="M844.15,663.81v-7.31h1.12v1.11c.28-.52,.55-.86,.79-1.03s.51-.25,.79-.25c.42,0,.84,.13,1.27,.4l-.43,1.15c-.3-.18-.61-.27-.91-.27-.27,0-.51,.08-.73,.25-.22,.16-.37,.39-.46,.68-.14,.44-.21,.92-.21,1.45v3.83h-1.24Z"/></g></g><g><g class="w"><g><path class="m" d="M250.3,195.61c3.06,0,6.33,.16,9.82,.5,21.24,2.07,45.79,21.52,48.79,58.78v12.4c-2.79,35.66-29.71,79.64-108.39,134.83-78.68-55.19-105.6-99.18-108.39-134.83v-12.4c2.99-37.26,27.55-56.7,48.78-58.78,3.49-.34,6.76-.5,9.82-.5,24.54,0,36.31,10.6,49.79,26.66,13.48-16.06,25.24-26.66,49.78-26.66"/><path class="m" d="M200.52,356.62c-37.97,0-71.76-17.79-93.57-45.47,15.49,26.42,44.44,56.52,93.57,90.98,49.14-34.47,78.09-64.56,93.58-91-21.81,27.69-55.61,45.49-93.58,45.49Z"/><g><path class="m" d="M157.73,203.28c2.5,5.03-6.74,14.72-20.65,21.64-13.91,6.92-27.21,8.46-29.71,3.43-2.51-5.03,6.74-14.72,20.65-21.64,13.91-6.93,27.21-8.46,29.71-3.43Z"/><path class="m" d="M171.11,223.64c0,4.32-3.5,7.83-7.83,7.83s-7.83-3.51-7.83-7.83,3.5-7.83,7.83-7.83,7.83,3.5,7.83,7.83Z"/><path class="m" d="M151.13,231.31c0,2.39-1.93,4.33-4.32,4.33s-4.33-1.94-4.33-4.33,1.93-4.33,4.33-4.33,4.32,1.94,4.32,4.33Z"/></g></g></g><g><path class="p" d="M243.3,424.48s-75.23,43.47-158.38,92.65l26.61,41.17,171.5-107.69,28.89-87.91s-39.6-25.77-68.62,61.77Z"/><path class="p" d="M22.54,530.65c62.38-115.75,177.98-67.71,177.98-67.71l-27.36,61.44-117.54,31.21-33.08-24.95Z"/><path class="s" d="M271.66,443.55s-88.79,19.2-165.58,89.99l39.6,43.2,166.78-88.79,46.93-142.78s-51.73-50.39-87.73,98.39Z"/><path class="l" d="M311.26,443.55s-88.79,19.2-165.58,89.99l39.6,43.2,166.78-88.79,46.93-142.78s-51.73-50.39-87.72,98.39Z"/><path class="t" d="M350.85,443.55s-88.79,19.2-165.58,89.99l39.6,43.2,166.78-88.79,46.93-142.78s-51.73-50.39-87.73,98.39Z"/><path class="k" d="M225.88,499.36c-114.34-79.47-192.42,1.15-192.42,1.15l-42.86,11.16v97.31l31.49-13.05,202.78-19.2,127.41-119.9c-65.1-36.2-126.4,42.52-126.4,42.52Z"/></g></g></svg>